<mxfile host="app.diagrams.net" agent="Mozilla/5.0 (Windows NT 10.0; Win64; x64) AppleWebKit/537.36 (KHTML, like Gecko) Chrome/129.0.0.0 Safari/537.36" version="24.7.16">
  <diagram name="Página-1" id="Q1GDpHMXebuc5FLrC5qu">
    <mxGraphModel dx="1355" dy="914" grid="0" gridSize="10" guides="1" tooltips="1" connect="1" arrows="1" fold="1" page="0" pageScale="1" pageWidth="827" pageHeight="1169" math="0" shadow="0">
      <root>
        <mxCell id="0" />
        <mxCell id="1" parent="0" />
        <mxCell id="FEOklc6rQLizEAP5TzJY-3" value="Vitrine de produtos" style="shape=module;align=left;spacingLeft=20;align=center;verticalAlign=top;whiteSpace=wrap;html=1;" vertex="1" parent="1">
          <mxGeometry x="-124" y="-14" width="100" height="50" as="geometry" />
        </mxCell>
        <mxCell id="FEOklc6rQLizEAP5TzJY-4" value="Descrição de produtos" style="shape=module;align=left;spacingLeft=20;align=center;verticalAlign=top;whiteSpace=wrap;html=1;" vertex="1" parent="1">
          <mxGeometry x="-1" y="-16" width="100" height="50" as="geometry" />
        </mxCell>
        <mxCell id="FEOklc6rQLizEAP5TzJY-5" value="Avaliações" style="shape=module;align=left;spacingLeft=20;align=center;verticalAlign=top;whiteSpace=wrap;html=1;" vertex="1" parent="1">
          <mxGeometry x="122" y="-19" width="100" height="50" as="geometry" />
        </mxCell>
        <mxCell id="FEOklc6rQLizEAP5TzJY-6" value="Publicação de produtos" style="shape=module;align=left;spacingLeft=20;align=center;verticalAlign=top;whiteSpace=wrap;html=1;" vertex="1" parent="1">
          <mxGeometry x="283" y="-19" width="100" height="50" as="geometry" />
        </mxCell>
        <mxCell id="FEOklc6rQLizEAP5TzJY-7" value="Acompanhamento de pedidos&lt;div&gt;&lt;br&gt;&lt;/div&gt;" style="shape=module;align=left;spacingLeft=20;align=center;verticalAlign=top;whiteSpace=wrap;html=1;" vertex="1" parent="1">
          <mxGeometry x="395" y="-18" width="128" height="49" as="geometry" />
        </mxCell>
        <mxCell id="FEOklc6rQLizEAP5TzJY-8" value="Pagamento" style="shape=module;align=left;spacingLeft=20;align=center;verticalAlign=top;whiteSpace=wrap;html=1;" vertex="1" parent="1">
          <mxGeometry x="-120" y="100" width="100" height="50" as="geometry" />
        </mxCell>
        <mxCell id="FEOklc6rQLizEAP5TzJY-9" value="Notificação" style="shape=module;align=left;spacingLeft=20;align=center;verticalAlign=top;whiteSpace=wrap;html=1;" vertex="1" parent="1">
          <mxGeometry x="-1" y="98" width="100" height="50" as="geometry" />
        </mxCell>
        <mxCell id="FEOklc6rQLizEAP5TzJY-10" value="Cancelamento" style="shape=module;align=left;spacingLeft=20;align=center;verticalAlign=top;whiteSpace=wrap;html=1;" vertex="1" parent="1">
          <mxGeometry x="122" y="96" width="100" height="50" as="geometry" />
        </mxCell>
        <mxCell id="FEOklc6rQLizEAP5TzJY-11" value="Adicionar produtos" style="shape=module;align=left;spacingLeft=20;align=center;verticalAlign=top;whiteSpace=wrap;html=1;" vertex="1" parent="1">
          <mxGeometry x="283" y="94" width="100" height="50" as="geometry" />
        </mxCell>
        <mxCell id="FEOklc6rQLizEAP5TzJY-12" value="Listar produtos" style="shape=module;align=left;spacingLeft=20;align=center;verticalAlign=top;whiteSpace=wrap;html=1;" vertex="1" parent="1">
          <mxGeometry x="409" y="91" width="100" height="50" as="geometry" />
        </mxCell>
        <mxCell id="FEOklc6rQLizEAP5TzJY-13" value="Deletar produtos" style="shape=module;align=left;spacingLeft=20;align=center;verticalAlign=top;whiteSpace=wrap;html=1;" vertex="1" parent="1">
          <mxGeometry x="535" y="91" width="100" height="50" as="geometry" />
        </mxCell>
        <mxCell id="FEOklc6rQLizEAP5TzJY-14" value="Gerenciamento de autenticação" style="shape=module;align=left;spacingLeft=20;align=center;verticalAlign=top;whiteSpace=wrap;html=1;" vertex="1" parent="1">
          <mxGeometry x="-114" y="227" width="114" height="57" as="geometry" />
        </mxCell>
        <mxCell id="FEOklc6rQLizEAP5TzJY-15" value="Validação de credenciais" style="shape=module;align=left;spacingLeft=20;align=center;verticalAlign=top;whiteSpace=wrap;html=1;" vertex="1" parent="1">
          <mxGeometry x="19" y="230.5" width="100" height="50" as="geometry" />
        </mxCell>
        <mxCell id="FEOklc6rQLizEAP5TzJY-16" value="Atualização de pedido" style="shape=module;align=left;spacingLeft=20;align=center;verticalAlign=top;whiteSpace=wrap;html=1;" vertex="1" parent="1">
          <mxGeometry x="178" y="230.5" width="100" height="50" as="geometry" />
        </mxCell>
        <mxCell id="FEOklc6rQLizEAP5TzJY-17" value="Avaliação de produto" style="shape=module;align=left;spacingLeft=20;align=center;verticalAlign=top;whiteSpace=wrap;html=1;" vertex="1" parent="1">
          <mxGeometry x="304" y="230.5" width="100" height="50" as="geometry" />
        </mxCell>
        <mxCell id="FEOklc6rQLizEAP5TzJY-18" value="Sistema de notificação" style="shape=module;align=left;spacingLeft=20;align=center;verticalAlign=top;whiteSpace=wrap;html=1;" vertex="1" parent="1">
          <mxGeometry x="423" y="230.5" width="100" height="50" as="geometry" />
        </mxCell>
        <mxCell id="FEOklc6rQLizEAP5TzJY-19" value="Catalogo de produtos" style="shape=module;align=left;spacingLeft=20;align=center;verticalAlign=top;whiteSpace=wrap;html=1;" vertex="1" parent="1">
          <mxGeometry x="-111" y="351" width="100" height="50" as="geometry" />
        </mxCell>
        <mxCell id="FEOklc6rQLizEAP5TzJY-20" value="Informações de usuários" style="shape=module;align=left;spacingLeft=20;align=center;verticalAlign=top;whiteSpace=wrap;html=1;" vertex="1" parent="1">
          <mxGeometry x="17" y="346" width="100" height="50" as="geometry" />
        </mxCell>
        <mxCell id="FEOklc6rQLizEAP5TzJY-21" value="Transações de pedidos" style="shape=module;align=left;spacingLeft=20;align=center;verticalAlign=top;whiteSpace=wrap;html=1;" vertex="1" parent="1">
          <mxGeometry x="172" y="342" width="100" height="50" as="geometry" />
        </mxCell>
      </root>
    </mxGraphModel>
  </diagram>
</mxfile>
